<svg xmlns="http://www.w3.org/2000/svg" viewBox="0 0 512 512">
  <!-- Fondo transparente -->
  <g fill="none" stroke="black" stroke-width="18" stroke-linecap="round" stroke-linejoin="round">
    
    <!-- Orejas -->
    <path d="M140 140 C80 40, 60 20, 120 200 Z" fill="white"></path>
    <path d="M372 140 C432 40, 452 20, 392 200 Z" fill="white"></path>
    
    <!-- Cabeza -->
    <circle cx="256" cy="220" r="120" fill="white"></circle>
    
    <!-- Ojos -->
    <circle cx="210" cy="210" r="28" fill="black"></circle>
    <circle cx="302" cy="210" r="28" fill="black"></circle>
    <circle cx="200" cy="200" r="8" fill="white"></circle>
    <circle cx="292" cy="200" r="8" fill="white"></circle>
    
    <!-- Nariz -->
    <circle cx="256" cy="260" r="10" fill="black"></circle>
    
    <!-- Boca -->
    <path d="M246 275 Q256 285 266 275" stroke="black" stroke-width="8"></path>
    
    <!-- Cuerpo -->
    <ellipse cx="256" cy="360" rx="90" ry="60" fill="white"></ellipse>
    
    <!-- Patitas -->
    <ellipse cx="200" cy="380" rx="30" ry="40" fill="black"></ellipse>
    <ellipse cx="312" cy="380" rx="30" ry="40" fill="black"></ellipse>
    
    <!-- Cola -->
    <path d="M180 360 C80 340, 100 460, 200 420 Z" fill="white" stroke="black" stroke-width="12"></path>
  </g>
</svg>
